<svg version="1.1" preserveAspectRatio="none" xmlns="http://www.w3.org/2000/svg" width="500" height="500" viewBox="0 0 500 500"><rect width="100%" height="100%" fill="#101F37" fill-opacity="1"/><svg viewBox="95.1717 190.507 381.4795 395.9741" width="320.8105618524039" height="333" x="89.5947px" y="83.5px" xmlns="http://www.w3.org/2000/svg" xmlns:xlink="http://www.w3.org/1999/xlink" preserveAspectRatio="none"><defs></defs><style>.companyName {fill:#E9B0D6;fill-opacity:1;}.icon1 {fill:#929292;fill-opacity:1;}.icon2 {fill:#E9B0D6;fill-opacity:1;}.icon3 {fill:#E5E5E5;fill-opacity:1;}.icon3-str {stroke:#E5E5E5;stroke-opacity:1;}.text {fill:#E9B0D6;fill-opacity:1;}</style><g opacity="1" transform="rotate(0 224.462 565.4811)">
<svg width="122.899" height="21" x="224.462" y="565.4811" version="1.1" preserveAspectRatio="none" viewBox="1.36 -28 165.72 28.32">
  <g transform="matrix(1 0 0 1 0 0)" class="text"><path id="id-6izo4zJp7" d="M18.20 0L18.20-3.20Q15.80 0.32 11.04 0.32L11.04 0.32Q6.72 0.32 4-2.68L4-2.68Q1.36-5.64 1.36-10L1.36-10Q1.36-14.36 4-17.32L4-17.32Q6.72-20.32 11.24-20.32Q15.76-20.32 18.20-16.76L18.20-16.76L18.20-28L21.20-28L21.20 0L18.20 0ZM11.44-2.40L11.44-2.40Q14.68-2.40 16.56-4.64L16.56-4.64Q18.36-6.76 18.36-10L18.36-10Q18.36-13.24 16.56-15.36L16.56-15.36Q14.68-17.60 11.44-17.60L11.44-17.60Q8.24-17.60 6.24-15.36L6.24-15.36Q4.36-13.24 4.36-10L4.36-10Q4.36-6.76 6.24-4.64L6.24-4.64Q8.24-2.40 11.44-2.40Z M39.08-20.32L39.08-20.32Q43.56-20.32 46.36-17.32L46.36-17.32Q49-14.44 49-10L49-10Q49-5.56 46.36-2.68L46.36-2.68Q43.56 0.32 39.08 0.32L39.08 0.32Q34.60 0.32 31.80-2.68L31.80-2.68Q29.16-5.56 29.16-10L29.16-10Q29.16-14.44 31.80-17.32L31.80-17.32Q34.60-20.32 39.08-20.32ZM39.08-2.40L39.08-2.40Q42.32-2.40 44.20-4.64L44.20-4.64Q46-6.76 46-10L46-10Q46-13.24 44.20-15.36L44.20-15.36Q42.32-17.60 39.08-17.60L39.08-17.60Q35.84-17.60 33.96-15.36L33.96-15.36Q32.16-13.24 32.16-10L32.16-10Q32.16-6.76 33.96-4.64L33.96-4.64Q35.84-2.40 39.08-2.40Z M61.76 0L58.76 0L58.76-17.36L54.68-17.36L54.68-20L58.76-20L58.76-27.16L61.76-27.16L61.76-20L66.36-20L66.36-17.36L61.76-17.36L61.76 0Z M72.44-4.08L76.32-4.08L76.32 0L72.44 0L72.44-4.08Z M94.28-2.40L94.28-2.40Q96.20-2.40 97.68-3.48Q99.16-4.56 99.84-6.28L99.84-6.28L103.08-6.28Q102.16-3.32 99.72-1.52L99.72-1.52Q97.16 0.32 93.64 0.32L93.64 0.32Q89.24 0.32 86.48-2.68L86.48-2.68Q83.80-5.60 83.80-10L83.80-10Q83.80-14.40 86.48-17.32L86.48-17.32Q89.24-20.32 93.64-20.32L93.64-20.32Q97.16-20.32 99.72-18.48L99.72-18.48Q102.16-16.68 103.08-13.72L103.08-13.72L99.84-13.72Q99.16-15.44 97.68-16.52Q96.20-17.60 94.28-17.60Q92.36-17.60 91.02-17Q89.68-16.40 88.76-15.36L88.76-15.36Q86.80-13.20 86.80-10L86.80-10Q86.80-6.80 88.76-4.64L88.76-4.64Q90.76-2.40 94.28-2.40Z M119.48-20.32L119.48-20.32Q123.96-20.32 126.76-17.32L126.76-17.32Q129.40-14.44 129.40-10L129.40-10Q129.40-5.56 126.76-2.68L126.76-2.68Q123.96 0.32 119.48 0.32L119.48 0.32Q115.00 0.32 112.20-2.68L112.20-2.68Q109.56-5.56 109.56-10L109.56-10Q109.56-14.44 112.20-17.32L112.20-17.32Q115.00-20.32 119.48-20.32ZM119.48-2.40L119.48-2.40Q122.72-2.40 124.60-4.64L124.60-4.64Q126.40-6.76 126.40-10L126.40-10Q126.40-13.24 124.60-15.36L124.60-15.36Q122.72-17.60 119.48-17.60L119.48-17.60Q116.24-17.60 114.36-15.36L114.36-15.36Q112.56-13.24 112.56-10L112.56-10Q112.56-6.76 114.36-4.64L114.36-4.64Q116.24-2.40 119.48-2.40Z M140.36-20L140.36-16.96Q142.36-20.32 146.44-20.32L146.44-20.32Q148.44-20.32 150.14-19.26Q151.84-18.20 152.80-16.28L152.80-16.28Q154.16-18.80 157.04-19.88L157.04-19.88Q158.20-20.32 159.66-20.32Q161.12-20.32 162.46-19.74Q163.80-19.16 164.84-18.08L164.84-18.08Q167.08-15.68 167.08-12.08L167.08-12.08L167.08 0L164.08 0L164.08-12Q164.08-14.48 162.68-16.08L162.68-16.08Q161.28-17.60 159.12-17.60L159.12-17.60Q156.84-17.60 155.32-16.12L155.32-16.12Q153.72-14.60 153.72-11.96L153.72-11.96L153.72 0L150.72 0L150.72-12Q150.72-14.48 149.32-16.08L149.32-16.08Q147.92-17.60 145.76-17.60L145.76-17.60Q143.48-17.60 141.96-16.12L141.96-16.12Q140.36-14.60 140.36-11.96L140.36-11.96L140.36 0L137.36 0L137.36-20L140.36-20Z"/></g>
</svg>
</g><g opacity="1" transform="rotate(0 95.1717 483.4811)">
<svg width="381.4795" height="60" x="95.1717" y="483.4811" version="1.1" preserveAspectRatio="none" viewBox="2.4609 -30.918 199.30859999999998 31.3477">
  <g transform="matrix(1 0 0 1 0 0)" class="companyName"><path id="id-D6z1nYkh5" d="M2.46-4.06L5.76-9.08Q7.42-8.14 9.13-7.39Q10.84-6.64 12.68-6.12Q14.51-5.61 16.53-5.33Q18.55-5.06 20.84-5.06L20.84-5.06Q23.59-5.06 25.53-5.42Q27.46-5.78 28.68-6.42Q29.90-7.05 30.46-7.93Q31.02-8.81 31.02-9.84L31.02-9.84Q31.02-11.50 29.63-12.47Q28.24-13.44 25.35-13.44L25.35-13.44Q24.08-13.44 22.68-13.27Q21.27-13.11 19.83-12.91Q18.40-12.71 17.00-12.55Q15.61-12.38 14.38-12.38L14.38-12.38Q12.32-12.38 10.44-12.91Q8.55-13.44 7.10-14.49Q5.64-15.55 4.79-17.13Q3.93-18.71 3.93-20.82L3.93-20.82Q3.93-22.07 4.27-23.30Q4.61-24.53 5.36-25.65Q6.11-26.78 7.30-27.74Q8.50-28.71 10.19-29.41Q11.88-30.12 14.09-30.52Q16.31-30.92 19.14-30.92L19.14-30.92Q21.19-30.92 23.26-30.69Q25.33-30.47 27.29-30.06Q29.26-29.65 31.07-29.07Q32.89-28.50 34.45-27.79L34.45-27.79L31.74-22.79Q30.45-23.36 28.96-23.84Q27.48-24.32 25.86-24.67Q24.24-25.02 22.51-25.22Q20.78-25.43 18.98-25.43L18.98-25.43Q16.43-25.43 14.78-25.06Q13.13-24.69 12.15-24.11Q11.17-23.54 10.79-22.82Q10.41-22.11 10.41-21.41L10.41-21.41Q10.41-20.04 11.64-19.17Q12.87-18.30 15.39-18.30L15.39-18.30Q16.41-18.30 17.72-18.45Q19.04-18.59 20.50-18.77Q21.95-18.95 23.47-19.09Q24.98-19.24 26.41-19.24L26.41-19.24Q29.10-19.24 31.18-18.63Q33.26-18.03 34.67-16.90Q36.07-15.78 36.80-14.19Q37.52-12.60 37.52-10.63L37.52-10.63Q37.52-7.99 36.30-5.93Q35.08-3.87 32.82-2.45Q30.57-1.04 27.38-0.30Q24.20 0.43 20.29 0.43L20.29 0.43Q17.71 0.43 15.25 0.11Q12.79-0.21 10.54-0.81Q8.28-1.41 6.24-2.24Q4.20-3.07 2.46-4.06L2.46-4.06Z M42.41 0L56.75-30.53L63.31-30.53L78.07 0L71.57 0L69.13-5.14L51.30-5.14L48.93 0L42.41 0ZM53.66-10.23L66.69-10.23L60.09-24.10L53.66-10.23Z M80.89 0L95.23-30.53L101.79-30.53L116.56 0L110.05 0L107.61-5.14L89.78-5.14L87.42 0L80.89 0ZM92.14-10.23L105.17-10.23L98.57-24.10L92.14-10.23Z M123.32 0L123.32-30.53L129.52-30.53L140.61-19.39L151.70-30.53L157.89-30.53L157.89 0L151.70 0L151.70-21.95L140.61-11.27L129.52-21.95L129.52 0L123.32 0Z M166.71-4.06L170.01-9.08Q171.67-8.14 173.38-7.39Q175.09-6.64 176.93-6.12Q178.76-5.61 180.78-5.33Q182.80-5.06 185.09-5.06L185.09-5.06Q187.84-5.06 189.78-5.42Q191.71-5.78 192.93-6.42Q194.15-7.05 194.71-7.93Q195.27-8.81 195.27-9.84L195.27-9.84Q195.27-11.50 193.88-12.47Q192.49-13.44 189.60-13.44L189.60-13.44Q188.33-13.44 186.93-13.27Q185.52-13.11 184.08-12.91Q182.65-12.71 181.25-12.55Q179.86-12.38 178.63-12.38L178.63-12.38Q176.57-12.38 174.69-12.91Q172.80-13.44 171.35-14.49Q169.89-15.55 169.04-17.13Q168.18-18.71 168.18-20.82L168.18-20.82Q168.18-22.07 168.52-23.30Q168.86-24.53 169.61-25.65Q170.36-26.78 171.55-27.74Q172.75-28.71 174.44-29.41Q176.13-30.12 178.34-30.52Q180.56-30.92 183.39-30.92L183.39-30.92Q185.44-30.92 187.51-30.69Q189.58-30.47 191.54-30.06Q193.51-29.65 195.32-29.07Q197.14-28.50 198.70-27.79L198.70-27.79L195.99-22.79Q194.70-23.36 193.21-23.84Q191.73-24.32 190.11-24.67Q188.49-25.02 186.76-25.22Q185.03-25.43 183.23-25.43L183.23-25.43Q180.68-25.43 179.03-25.06Q177.38-24.69 176.40-24.11Q175.42-23.54 175.04-22.82Q174.66-22.11 174.66-21.41L174.66-21.41Q174.66-20.04 175.89-19.17Q177.12-18.30 179.64-18.30L179.64-18.30Q180.66-18.30 181.97-18.45Q183.29-18.59 184.75-18.77Q186.20-18.95 187.72-19.09Q189.23-19.24 190.66-19.24L190.66-19.24Q193.35-19.24 195.43-18.63Q197.51-18.03 198.92-16.90Q200.32-15.78 201.05-14.19Q201.77-12.60 201.77-10.63L201.77-10.63Q201.77-7.99 200.55-5.93Q199.33-3.87 197.07-2.45Q194.82-1.04 191.63-0.30Q188.45 0.43 184.54 0.43L184.54 0.43Q181.96 0.43 179.50 0.11Q177.04-0.21 174.79-0.81Q172.53-1.41 170.49-2.24Q168.45-3.07 166.71-4.06L166.71-4.06Z"/></g>
</svg>
</g><g opacity="1" transform="rotate(0 209.6155 190.507)">
<svg width="152.5918" height="262.9741" x="209.6155" y="190.507" version="1.1" preserveAspectRatio="none" viewBox="76.5 59.5 47 80.99899291992188">
  <g transform="matrix(1 0 0 1 0 0)" ><g><path d="M100 59.5c-12.959 0-23.5 10.628-23.5 23.694v33.611c0 13.066 10.541 23.694 23.5 23.694s23.5-10.628 23.5-23.694V83.194c0-13.066-10.541-23.694-23.5-23.694zm19.71 23.694v12.678h-17.815V89.4c2.662-.824 4.614-3.295 4.614-6.246V76.24c0-2.978-1.988-5.471-4.688-6.272v-6.555c10.017.932 17.889 9.442 17.889 19.781zM100 73.497c1.5 0 2.719 1.231 2.719 2.744v6.914c0 1.513-1.219 2.742-2.719 2.742s-2.719-1.229-2.719-2.742v-6.914c0-1.513 1.219-2.744 2.719-2.744zm-1.969-10.075v6.594c-2.624.847-4.54 3.302-4.54 6.225v6.914c0 2.951 1.952 5.422 4.614 6.246v6.472H80.29V83.194c0-10.288 7.793-18.773 17.741-19.772zM100 136.679c-10.869 0-19.71-8.914-19.71-19.873V99.694h39.42v17.112c0 10.959-8.841 19.873-19.71 19.873z" data-color="1" class="icon1"></path></g></g>
</svg>
</g></svg></svg>